<?xml version="1.0" encoding="iso-8859-1"?>
<!-- Generator: Adobe Illustrator 19.0.0, SVG Export Plug-In . SVG Version: 6.00 Build 0)  -->
<svg version="1.1" id="Layer_1" xmlns="http://www.w3.org/2000/svg" xmlns:xlink="http://www.w3.org/1999/xlink" x="0px" y="0px"
	 viewBox="0 0 496 496" style="enable-background:new 0 0 496 496;" xml:space="preserve">
<g>
	<g>
		<g>
			<path d="M490.208,383.104l-43.36-115.616C431.72,227.12,392.584,200,349.472,200H288v-16c0-8.824-7.176-16-16-16V24
				c0-13.232-10.768-24-24-24s-24,10.768-24,24v144c-8.824,0-16,7.176-16,16v16h-61.472c-43.12,0-82.248,27.12-97.384,67.48
				L5.784,383.104C1.944,393.352,0,404.104,0,415.048C0,459.688,36.312,496,80.952,496c27.136,0,52.312-13.48,67.36-36.048
				L156.28,448h183.44l7.968,11.952C362.736,482.52,387.912,496,415.048,496c44.64,0,80.952-36.312,80.952-80.952
				C496,404.104,494.056,393.352,490.208,383.104z M240,24c0-4.416,3.584-8,8-8s8,3.584,8,8v144h-16V24z M224,184h48v16h-48V184z
				 M415.048,480c-21.768,0-41.976-10.816-54.048-28.92L348.28,432H147.72L135,451.08C122.928,469.184,102.72,480,80.952,480
				C45.144,480,16,450.856,16,415.048c0-9.024,1.608-17.88,4.776-26.32l43.36-115.632C76.936,238.944,110.048,216,146.528,216H192
				v16h16v-16h16v16h16v-16h16v16h16v-16h16v16h16v-16h45.472c36.488,0,69.592,22.944,82.4,57.104l43.36,115.624
				c3.16,8.44,4.768,17.296,4.768,26.32C480,450.856,450.856,480,415.048,480z"/>
			<path d="M144,232c-39.704,0-72,32.296-72,72c0,39.704,32.296,72,72,72s72-32.296,72-72C216,264.296,183.704,232,144,232z
				 M144,360c-30.872,0-56-25.128-56-56s25.128-56,56-56s56,25.128,56,56S174.872,360,144,360z"/>
			<path d="M168,280c-10.416,0-19.216,6.712-22.528,16H96v16h49.472c3.312,9.288,12.112,16,22.528,16c13.232,0,24-10.768,24-24
				S181.232,280,168,280z M168,312c-4.416,0-8-3.584-8-8c0-4.416,3.584-8,8-8s8,3.584,8,8C176,308.416,172.416,312,168,312z"/>
			<path d="M208,416h80v-64h-80V416z M224,368h48v32h-16v-16h-16v16h-16V368z"/>
			<path d="M352,232c-39.704,0-72,32.296-72,72c0,39.704,32.296,72,72,72c39.704,0,72-32.296,72-72C424,264.296,391.704,232,352,232
				z M352,360c-30.872,0-56-25.128-56-56s25.128-56,56-56s56,25.128,56,56S382.872,360,352,360z"/>
			<path d="M352,256c-13.232,0-24,10.768-24,24c0,10.416,6.712,19.216,16,22.528V352h16v-49.472c9.288-3.312,16-12.112,16-22.528
				C376,266.768,365.232,256,352,256z M352,288c-4.416,0-8-3.584-8-8c0-4.416,3.584-8,8-8c4.416,0,8,3.584,8,8
				C360,284.416,356.416,288,352,288z"/>
			<path d="M328,112c13.232,0,24-10.768,24-24s-10.768-24-24-24s-24,10.768-24,24S314.768,112,328,112z M328,80c4.416,0,8,3.584,8,8
				s-3.584,8-8,8c-4.416,0-8-3.584-8-8S323.584,80,328,80z"/>
			<path d="M368,88c0,22.056-17.944,40-40,40v16c30.872,0,56-25.128,56-56s-25.128-56-56-56v16C350.056,48,368,65.944,368,88z"/>
			<path d="M400,88c0,39.704-32.296,72-72,72v16c48.52,0,88-39.48,88-88S376.52,0,328,0v16C367.704,16,400,48.296,400,88z"/>
			<path d="M144,88c0,13.232,10.768,24,24,24s24-10.768,24-24s-10.768-24-24-24S144,74.768,144,88z M176,88c0,4.416-3.584,8-8,8
				s-8-3.584-8-8s3.584-8,8-8S176,83.584,176,88z"/>
			<path d="M168,48V32c-30.872,0-56,25.128-56,56s25.128,56,56,56v-16c-22.056,0-40-17.944-40-40C128,65.944,145.944,48,168,48z"/>
			<path d="M168,176v-16c-39.704,0-72-32.296-72-72s32.296-72,72-72V0c-48.52,0-88,39.48-88,88S119.48,176,168,176z"/>
		</g>
	</g>
</g>
<g>
</g>
<g>
</g>
<g>
</g>
<g>
</g>
<g>
</g>
<g>
</g>
<g>
</g>
<g>
</g>
<g>
</g>
<g>
</g>
<g>
</g>
<g>
</g>
<g>
</g>
<g>
</g>
<g>
</g>
</svg>
