<?xml version="1.0" encoding="iso-8859-1"?>
<!-- Generator: Adobe Illustrator 19.0.0, SVG Export Plug-In . SVG Version: 6.00 Build 0)  -->
<svg version="1.1" id="Layer_1" xmlns="http://www.w3.org/2000/svg" xmlns:xlink="http://www.w3.org/1999/xlink" x="0px" y="0px"
	 viewBox="0 0 496 496" style="enable-background:new 0 0 496 496;" xml:space="preserve">
<g>
	<g>
		<g>
			<path d="M496,264v-16h-72v-8c0-13.232-10.768-24-24-24s-24,10.768-24,24v8h-72v16h88v32h-16v16h-28l-24-32H172l-24,32h-28v-16
				h-16v-32h88v-16h-72v-8c0-13.232-10.768-24-24-24s-24,10.768-24,24v8H0v16h88v32H72v80h48v-16h24v34.584l-19.88,7.952
				c-12.224,4.888-20.12,16.552-20.12,29.712V480H88v16h48v-16h-16v-47.752c0-6.576,3.944-12.416,10.056-14.848l23.488-9.4h188.912
				l23.488,9.4c6.112,2.432,10.056,8.272,10.056,14.848V480h-16v16h48v-16h-16v-47.752c0-13.168-7.896-24.832-20.12-29.712
				L352,394.584V360h24v16h48v-80h-16v-32H496z M88,240c0-4.416,3.584-8,8-8s8,3.584,8,8v8H88V240z M104,360H88v-48h16V360z
				 M144,344h-24v-16h24V344z M208,296h80v24h-80V296z M336,360h-16v16h16v16H160v-16h144v-16H160v-37.336L180,296h12v24
				c0,8.824,7.176,16,16,16h80c8.824,0,16-7.176,16-16v-24h12l20,26.664V360z M376,344h-24v-16h24V344z M408,360h-16v-48h16V360z
				 M392,248v-8c0-4.416,3.584-8,8-8c4.416,0,8,3.584,8,8v8H392z"/>
			<polygon points="309.656,197.656 298.344,186.344 288,196.688 288,0 272,0 272,208 276.688,208 248,236.688 219.312,208 224,208 
				224,0 208,0 208,196.688 197.656,186.344 186.344,197.656 248,259.312 			"/>
			<rect x="240" width="16" height="16"/>
			<rect x="240" y="32" width="16" height="16"/>
			<rect x="240" y="64" width="16" height="16"/>
			<rect x="240" y="96" width="16" height="16"/>
			<rect x="240" y="128" width="16" height="16"/>
			<rect x="240" y="160" width="16" height="16"/>
			<rect x="240" y="192" width="16" height="16"/>
			<rect x="424" y="72" width="16" height="128"/>
			<rect x="424" y="24" width="16" height="32"/>
			<rect x="360" y="144" width="16" height="56"/>
			<rect x="360" y="56" width="16" height="72"/>
			<rect x="360" y="24" width="16" height="16"/>
			<rect x="392" y="88" width="16" height="112"/>
			<rect x="392" y="24" width="16" height="48"/>
			<rect x="120" y="72" width="16" height="128"/>
			<rect x="120" y="24" width="16" height="32"/>
			<rect x="56" y="120" width="16" height="80"/>
			<rect x="56" y="88" width="16" height="16"/>
			<rect x="56" y="24" width="16" height="48"/>
			<rect x="88" y="56" width="16" height="144"/>
			<rect x="88" y="24" width="16" height="16"/>
		</g>
	</g>
</g>
<g>
</g>
<g>
</g>
<g>
</g>
<g>
</g>
<g>
</g>
<g>
</g>
<g>
</g>
<g>
</g>
<g>
</g>
<g>
</g>
<g>
</g>
<g>
</g>
<g>
</g>
<g>
</g>
<g>
</g>
</svg>
