<?xml version="1.0" encoding="iso-8859-1"?>
<!-- Generator: Adobe Illustrator 19.0.0, SVG Export Plug-In . SVG Version: 6.00 Build 0)  -->
<svg version="1.1" id="Layer_1" xmlns="http://www.w3.org/2000/svg" xmlns:xlink="http://www.w3.org/1999/xlink" x="0px" y="0px"
	 viewBox="0 0 496 496" style="enable-background:new 0 0 496 496;" xml:space="preserve">
<g>
	<g>
		<g>
			<path d="M392,144H272v-16h16v-16h-16V24c0-13.232-10.768-24-24-24s-24,10.768-24,24v88h-16v16h16v16H104
				c-39.704,0-72,32.296-72,72v240c0,22.056,17.944,40,40,40h78.112c14.08,0,26.744-7.832,33.048-20.424
				C186.728,468.44,193.904,464,201.888,464h92.216c7.984,0,15.168,4.44,18.736,11.576C319.152,488.168,331.816,496,345.888,496H424
				c22.056,0,40-17.944,40-40V216C464,176.296,431.704,144,392,144z M240,24c0-4.416,3.584-8,8-8s8,3.584,8,8v88h-16V24z M240,128
				h16v16h-16V128z M224,160h48v24c0,4.416-3.584,8-8,8h-8v-16h-16v16h-8c-4.416,0-8-3.584-8-8V160z M448,456
				c0,10.416-6.712,19.216-16,22.528V464h-16v16h-16v-16h-16v16h-16v-16h-16v16h-6.112c-7.984,0-15.168-4.44-18.736-11.576
				C320.848,455.832,308.184,448,294.112,448h-92.224c-14.08,0-26.744,7.832-33.048,20.424C165.272,475.56,158.096,480,150.112,480
				H144v-16h-16v16h-16v-16H96v16H80v-16H64v14.528c-9.288-3.312-16-12.112-16-22.528V216c0-30.872,25.128-56,56-56h104v24
				c0,13.232,10.768,24,24,24h32c13.232,0,24-10.768,24-24v-24h104c30.872,0,56,25.128,56,56V456z"/>
			<path d="M152,192c-48.52,0-88,39.48-88,88s39.48,88,88,88s88-39.48,88-88C240,231.48,200.52,192,152,192z M152,352
				c-39.704,0-72-32.296-72-72c0-39.704,32.296-72,72-72s72,32.296,72,72S191.704,352,152,352z"/>
			<path d="M96,304h112v-48H96V304z M176,272h16v16h-16V272z M144,272h16v16h-16V272z M112,272h16v16h-16V272z"/>
			<path d="M344,192c-48.52,0-88,39.48-88,88s39.48,88,88,88c48.52,0,88-39.48,88-88C432,231.48,392.52,192,344,192z M344,352
				c-39.704,0-72-32.296-72-72c0-39.704,32.296-72,72-72c39.704,0,72,32.296,72,72S383.704,352,344,352z"/>
			<path d="M320,336h48V224h-48V336z M336,240h16v16h-16V240z M336,272h16v16h-16V272z M336,304h16v16h-16V304z"/>
			<rect x="192" y="400" width="16" height="16"/>
			<rect x="160" y="400" width="16" height="16"/>
			<rect x="128" y="400" width="16" height="16"/>
			<rect x="96" y="400" width="16" height="16"/>
			<path d="M376,384c-13.232,0-24,10.768-24,24s10.768,24,24,24s24-10.768,24-24S389.232,384,376,384z M376,416
				c-4.416,0-8-3.584-8-8c0-4.416,3.584-8,8-8c4.416,0,8,3.584,8,8C384,412.416,380.416,416,376,416z"/>
			<path d="M312,384c-13.232,0-24,10.768-24,24s10.768,24,24,24s24-10.768,24-24S325.232,384,312,384z M312,416
				c-4.416,0-8-3.584-8-8c0-4.416,3.584-8,8-8c4.416,0,8,3.584,8,8C320,412.416,316.416,416,312,416z"/>
		</g>
	</g>
</g>
<g>
</g>
<g>
</g>
<g>
</g>
<g>
</g>
<g>
</g>
<g>
</g>
<g>
</g>
<g>
</g>
<g>
</g>
<g>
</g>
<g>
</g>
<g>
</g>
<g>
</g>
<g>
</g>
<g>
</g>
</svg>
