<?xml version="1.0" encoding="iso-8859-1"?>
<!-- Generator: Adobe Illustrator 19.0.0, SVG Export Plug-In . SVG Version: 6.00 Build 0)  -->
<svg version="1.1" id="Layer_1" xmlns="http://www.w3.org/2000/svg" xmlns:xlink="http://www.w3.org/1999/xlink" x="0px" y="0px"
	 viewBox="0 0 496 496" style="enable-background:new 0 0 496 496;" xml:space="preserve">
<g>
	<g>
		<g>
			<path d="M424,32v-8c0-13.232-10.768-24-24-24s-24,10.768-24,24v8h-72v16h88v32h-16v16h-28l-24-32H172l-24,32h-28V80h-16V48h88V32
				h-72v-8c0-13.232-10.768-24-24-24S72,10.768,72,24v8H0v16h88v32H72v80h48v-16h24v48h208v-48h24v16h48V80h-16V48h88V32H424z
				 M88,24c0-4.416,3.584-8,8-8s8,3.584,8,8v8H88V24z M104,144H88V96h16V144z M144,128h-24v-16h24V128z M208,80h80v24h-80V80z
				 M336,144h-16v16h16v16H160v-16h144v-16H160v-37.336L180,80h12v24c0,8.824,7.176,16,16,16h80c8.824,0,16-7.176,16-16V80h12
				l20,26.664V144z M376,128h-24v-16h24V128z M408,144h-16V96h16V144z M408,32h-16v-8c0-4.416,3.584-8,8-8c4.416,0,8,3.584,8,8V32z"
				/>
			<polygon points="186.344,266.344 197.656,277.656 208,267.312 208,496 224,496 224,256 219.312,256 248,227.312 276.688,256 
				272,256 272,496 288,496 288,267.312 298.344,277.656 309.656,266.344 248,204.688 			"/>
			<rect x="240" y="480" width="16" height="16"/>
			<rect x="240" y="448" width="16" height="16"/>
			<rect x="240" y="416" width="16" height="16"/>
			<rect x="240" y="384" width="16" height="16"/>
			<rect x="240" y="352" width="16" height="16"/>
			<rect x="240" y="320" width="16" height="16"/>
			<rect x="240" y="288" width="16" height="16"/>
			<rect x="240" y="256" width="16" height="16"/>
			<rect x="56" y="192" width="16" height="128"/>
			<rect x="56" y="336" width="16" height="32"/>
			<rect x="120" y="192" width="16" height="56"/>
			<rect x="120" y="264" width="16" height="72"/>
			<rect x="120" y="352" width="16" height="16"/>
			<rect x="88" y="192" width="16" height="112"/>
			<rect x="88" y="320" width="16" height="48"/>
			<rect x="360" y="192" width="16" height="128"/>
			<rect x="360" y="336" width="16" height="32"/>
			<rect x="424" y="192" width="16" height="80"/>
			<rect x="424" y="288" width="16" height="16"/>
			<rect x="424" y="320" width="16" height="48"/>
			<rect x="392" y="192" width="16" height="144"/>
			<rect x="392" y="352" width="16" height="16"/>
		</g>
	</g>
</g>
<g>
</g>
<g>
</g>
<g>
</g>
<g>
</g>
<g>
</g>
<g>
</g>
<g>
</g>
<g>
</g>
<g>
</g>
<g>
</g>
<g>
</g>
<g>
</g>
<g>
</g>
<g>
</g>
<g>
</g>
</svg>
