<?xml version="1.0" encoding="iso-8859-1"?>
<!-- Generator: Adobe Illustrator 19.0.0, SVG Export Plug-In . SVG Version: 6.00 Build 0)  -->
<svg version="1.1" id="Layer_1" xmlns="http://www.w3.org/2000/svg" xmlns:xlink="http://www.w3.org/1999/xlink" x="0px" y="0px"
	 viewBox="0 0 496 496" style="enable-background:new 0 0 496 496;" xml:space="preserve">
<g>
	<g>
		<g>
			<rect x="344" y="120" width="16" height="32"/>
			<path d="M456,144h-72V48c0-13.232-10.768-24-24-24h-40V0H144v24H24C10.768,24,0,34.768,0,48v168c0,13.232,10.768,24,24,24h88v200
				c0,30.872,25.128,56,56,56h272c30.872,0,56-25.128,56-56V184C496,161.944,478.056,144,456,144z M336,40h24c4.416,0,8,3.584,8,8
				v168c0,4.416-3.584,8-8,8h-24V40z M160,16h144v16c0,4.416-3.584,8-8,8H168c-4.416,0-8-3.584-8-8V16z M32,224h-8
				c-4.416,0-8-3.584-8-8V48c0-4.416,3.584-8,8-8h8V224z M48,224V40h97.472c3.312,9.288,12.112,16,22.528,16h128
				c10.416,0,19.216-6.712,22.528-16H320v184c0-8.824-7.176-16-16-16h-48c-8.824,0-16,7.176-16,16h-16c0-8.824-7.176-16-16-16h-48
				c-8.824,0-16,7.176-16,16H48z M304,224v16h-48v-16H304z M208,224v16h-48v-16H208z M480,440c0,22.056-17.944,40-40,40H168
				c-22.056,0-40-17.944-40-40V240h16v16h80v-16h16v16h80v-16h40c13.232,0,24-10.768,24-24v-56h72c13.232,0,24,10.768,24,24V440z"/>
			<path d="M216,304c-39.704,0-72,32.296-72,72c0,39.704,32.296,72,72,72s72-32.296,72-72C288,336.296,255.704,304,216,304z
				 M215.992,320c15.208,0,29.016,6.12,39.12,16H176.88C186.984,326.12,200.784,320,215.992,320z M216.008,432
				c-15.208,0-29.016-6.12-39.12-16h78.232C245.016,425.88,231.216,432,216.008,432z M266.52,400H248h-82.52
				c-3.472-7.288-5.48-15.408-5.48-24c0-8.592,2.008-16.712,5.48-24H248h18.52c3.292,6.909,5.245,14.572,5.441,22.67
				C271.268,362.054,260.786,352,248,352c-13.232,0-24,10.768-24,24s10.768,24,24,24c12.786,0,23.268-10.054,23.961-22.67
				C271.765,385.428,269.812,393.091,266.52,400z M256,376c0,4.416-3.584,8-8,8s-8-3.584-8-8c0-4.416,3.584-8,8-8
				S256,371.584,256,376z"/>
			<path d="M392,304c-39.704,0-72,32.296-72,72c0,39.704,32.296,72,72,72c39.704,0,72-32.296,72-72C464,336.296,431.704,304,392,304
				z M400,344c0,4.416-3.584,8-8,8c-4.416,0-8-3.584-8-8c0-4.416,3.584-8,8-8C396.416,336,400,339.584,400,344z M352,415.12
				c-9.88-10.112-16-23.904-16-39.12s6.12-29.008,16-39.112V415.12z M416,344v82.52c-7.288,3.472-15.408,5.48-24,5.48
				c-8.592,0-16.712-2.008-24-5.48V344v-18.52c6.909-3.292,14.572-5.245,22.67-5.441C378.054,320.732,368,331.214,368,344
				c0,13.232,10.768,24,24,24S416,357.232,416,344c0-12.786-10.054-23.268-22.67-23.961c8.098,0.196,15.761,2.15,22.67,5.441V344z
				 M432,415.112V336.88c9.88,10.104,16,23.904,16,39.112S441.88,405.008,432,415.112z"/>
			<path d="M424,224c13.232,0,24-10.768,24-24s-10.768-24-24-24s-24,10.768-24,24S410.768,224,424,224z M424,192
				c4.416,0,8,3.584,8,8s-3.584,8-8,8c-4.416,0-8-3.584-8-8S419.584,192,424,192z"/>
			<path d="M424,288c13.232,0,24-10.768,24-24s-10.768-24-24-24s-24,10.768-24,24S410.768,288,424,288z M424,256
				c4.416,0,8,3.584,8,8c0,4.416-3.584,8-8,8c-4.416,0-8-3.584-8-8C416,259.584,419.584,256,424,256z"/>
			<path d="M217.248,196.296l13.504-8.592l-28.456-44.72L212.28,128h39.44l45.624,68.44l13.312-8.872L260.28,112h-12.92
				c-3.904-27.088-27.208-48-55.36-48c-21.68,0-41.176,12.696-50.384,32h-26.008l-58.36,91.704l13.504,8.592L124.392,112h39.216
				L217.248,196.296z M192,80c19.312,0,35.472,13.768,39.192,32H203.72l-10.816,16.232L172.392,96H160.08
				C167.504,86.128,179.248,80,192,80z"/>
		</g>
	</g>
</g>
<g>
</g>
<g>
</g>
<g>
</g>
<g>
</g>
<g>
</g>
<g>
</g>
<g>
</g>
<g>
</g>
<g>
</g>
<g>
</g>
<g>
</g>
<g>
</g>
<g>
</g>
<g>
</g>
<g>
</g>
</svg>
