<?xml version="1.0" encoding="iso-8859-1"?>
<!-- Generator: Adobe Illustrator 19.0.0, SVG Export Plug-In . SVG Version: 6.00 Build 0)  -->
<svg version="1.1" id="Layer_1" xmlns="http://www.w3.org/2000/svg" xmlns:xlink="http://www.w3.org/1999/xlink" x="0px" y="0px"
	 viewBox="0 0 511.979 511.979" style="enable-background:new 0 0 511.979 511.979;" xml:space="preserve">
<g>
	<g>
		<g>
			<path d="M63.99,182.624l-45.525,47.125c-24.512,25.408-24.512,66.731,0.021,92.139c12.117,12.544,28.267,19.435,45.504,19.435
				c17.237,0,33.387-6.891,45.504-19.435h0.021c24.512-25.408,24.512-66.731,0-92.139L63.99,182.624z"/>
			<path d="M493.511,59.083l-45.525-47.125l-45.525,47.125c-24.512,25.408-24.512,66.731,0.021,92.139
				c12.117,12.544,28.288,19.435,45.504,19.435c17.237,0,33.408-6.891,45.504-19.435h0.021
				C518.023,125.813,518.023,84.491,493.511,59.083z"/>
			<path d="M341.324,288.576V85.333C341.324,38.272,303.051,0,255.99,0s-85.333,38.272-85.333,85.333v203.243
				C143.414,312.832,127.99,347.051,127.99,384c0,38.699,17.237,74.923,47.296,99.349c23.019,18.709,51.499,28.629,80.896,28.629
				c9.003,0,18.069-0.939,27.115-2.816c49.856-10.411,89.451-51.157,98.539-101.44C389.942,362.944,374.518,318.251,341.324,288.576
				z M255.99,426.667c-23.573,0-42.667-19.093-42.667-42.667c0-15.744,8.64-29.355,21.333-36.757V85.333
				c0-11.776,9.536-21.333,21.333-21.333c11.797,0,21.333,9.557,21.333,21.333v261.909c12.693,7.403,21.333,21.013,21.333,36.757
				C298.657,407.573,279.563,426.667,255.99,426.667z"/>
		</g>
	</g>
</g>
<g>
</g>
<g>
</g>
<g>
</g>
<g>
</g>
<g>
</g>
<g>
</g>
<g>
</g>
<g>
</g>
<g>
</g>
<g>
</g>
<g>
</g>
<g>
</g>
<g>
</g>
<g>
</g>
<g>
</g>
</svg>
